{"title":"Hush.2009.DVDRIP.XviD-ZEKTORM","uid":5029017,"size":735046851,"categoryP":"video","categoryS":"movies","magnet":"?xt=urn:btih:c89d27324545785c9c43fdf67aece8727c76aa8c&amp;dn=Hush.2009.DVDRIP.XviD-ZEKTORM&amp;tr=udp%3A%2F%2Ftracker.openbittorrent.com%3A80&amp;tr=udp%3A%2F%2Fopen.demonii.com%3A1337&amp;tr=udp%3A%2F%2Ftracker.coppersurfer.tk%3A6969&amp;tr=udp%3A%2F%2Fexodus.desync.com%3A6969","seeders":2,"leechers":1,"uploader":"blowley","files":3,"time":1248825204,"description":"Title                            : Hush\nYear                             : 2009\nGenre                            : Thriller\niMDB URL                         : http://www.imdb.com/title/tt1093369/\n\nComplete name                    : H-ZEKTORM.avi\nFormat                           : AVI\nFile size                        : 701 MiB\nDuration                         : 1h 27mn\nOverall bit rate                 : 1120 Kbps\nSource                           : DVD PAL\n\nVideo\nFormat                           : MPEG-4 Visual\nFormat profile                   : Streaming Video@L1\nCodec ID                         : XVID\nCodec ID/Hint                    : XviD\nDuration                         : 1h 27mn\nBit rate                         : 1002 Kbps\nWidth                            : 720 pixels\nHeight                           : 304 pixels\nDisplay aspect ratio             : 2.35\nFrame rate                       : 25.000 fps\nResolution                       : 24 bits\nColorimetry                      : 4:2:0\nScan type                        : Progressive\nBits/(Pixel*Frame)               : 0.183\nStream size                      : 627 MiB (89%)\nWriting library                  : XviD\n\nAudio\nFormat                           : MPEG Audio\nFormat version                   : Version 1\nFormat profile                   : Layer 3\nCodec ID                         : 55\nCodec ID/Hint                    : MP3\nDuration                         : 1h 27mn\nBit rate mode                    : Variable\nBit rate                         : 105 Kbps\nMinimum bit rate                 : 128 Kbps\nChannel(s)                       : 2 channels\nSampling rate                    : 48.0 KHz\nResolution                       : 16 bits\nStream size                      : 65.8 MiB (9%)\nWriting library                  : LAME3.98r\nEncoding settings                : ABR\n","torrent":{"xt":"urn:btih:c89d27324545785c9c43fdf67aece8727c76aa8c","amp;dn":"Hush.2009.DVDRIP.XviD-ZEKTORM","amp;tr":["udp%3A%2F%2Ftracker.openbittorrent.com%3A80","udp%3A%2F%2Fopen.demonii.com%3A1337","udp%3A%2F%2Ftracker.coppersurfer.tk%3A6969","udp%3A%2F%2Fexodus.desync.com%3A6969"],"infoHash":"c89d27324545785c9c43fdf67aece8727c76aa8c","infoHashBuffer":{"type":"Buffer","data":[200,157,39,50,69,69,120,92,156,67,253,246,122,236,232,114,124,118,170,140]},"announce":[],"urlList":[]}}